<?xml version="1.0" encoding="UTF-8"?><svg id="_レイヤー_1" xmlns="http://www.w3.org/2000/svg" viewBox="0 0 30 30"><defs><style>.cls-1{fill:#fff;stroke-width:0px;}</style></defs><path class="cls-1" d="M29.95,5.53v18.93c0,.68-.24,1.27-.73,1.76-.49.49-1.07.73-1.76.73H2.54c-.69,0-1.27-.24-1.76-.73-.49-.49-.73-1.07-.73-1.76V5.53c0-.69.24-1.27.73-1.76.49-.49,1.07-.73,1.76-.73h24.91c.69,0,1.27.24,1.76.73.49.49.73,1.07.73,1.76ZM27.46,5.04H2.54c-.14,0-.25.05-.35.15-.1.1-.15.22-.15.35v18.93c0,.13.05.25.15.35s.22.15.35.15h24.91c.13,0,.25-.05.35-.15s.15-.22.15-.35V5.53c0-.13-.05-.25-.15-.35-.1-.1-.22-.15-.35-.15ZM9.15,7.9c.58.58.87,1.29.87,2.12s-.29,1.54-.87,2.12-1.29.87-2.12.87-1.54-.29-2.12-.87-.87-1.29-.87-2.12.29-1.54.87-2.12c.58-.58,1.29-.87,2.12-.87s1.54.29,2.12.87ZM25.96,16v6.97H4.04v-2.99l4.98-4.98,2.49,2.49,7.97-7.97,6.48,6.48Z"/></svg>